<svg xmlns="http://www.w3.org/2000/svg"  viewBox="0 0 512 512" width="48px" height="48px"><path fill="#3AB37C" d="M314.5 397.8c-1.7-.5-3.4-1.1-5.1-1.9.7 1.3 1.5 2.5 2.5 3.6.6.7 1.2 1.4 1.9 2C313.5 400.2 313.8 398.9 314.5 397.8zM419.1 109.6c-3.8-8.1-8.6-16-14.5-22.8-2.8-3.3-6.4-6.8-10.4-9.3 3.2 7.1 7.4 13.8 10.4 21 3.8 9.1 6.8 18.3 8.9 27.8 3.5 15.6.4 32.5-8.8 45.6-9.9 14.2-26.4 21.1-43.5 20-9.3-.6-18.3-2.9-27.6-3.2-8.5-.3-17.1-.2-25.4-2.3 0 0 0 .1 0 .1 1.4 4.5 5.6 6.3 9.9 7.7 11.2 3.5 23.7 5.5 35.4 5.7 13.5.3 27.3-1.3 40.1-5.8 11.4-4 25.4-10.9 31.1-22.3C434.3 152.7 427.7 127.8 419.1 109.6z"/><path fill="#3AB37C" d="M403,123.4c-2.2-8.5-5-16.9-8.8-24.8c-3.3-6.7-7.1-13.1-9.9-20c0.2,7.2,3.9,19.6,4.5,22.4c3,13.7,7.3,31.7-0.2,44.7c-3.8,6.6-9.7,12.4-15.3,17.4c-6.2,5.5-12.8,10.9-20.4,14.2c-3.6,1.6-7,2.3-10.5,2.6c4.9,0.6,9.7,1.4,14.7,2c15.4,1.9,31.7-2.5,40.4-16.4C405.7,152.4,406.9,138.2,403,123.4z"/><path fill="#3AB37C" d="M377.4 94c-.8-3.7-2.1-9.3-2.3-14.7-.3.8-.5 1.8-.6 2.9-.3 4.7.6 9.5 1.2 14.1 1.6 13.3-2.1 28.2-7.2 40.5-4.4 10.7-11.1 20-21.9 25.1-7.2 3.4-15.1 5.2-22.6 7.8 2 .1 4 .3 5.8.4 6.5.4 12.6 1.4 18.8-1.3 8.2-3.6 15.4-9.6 21.7-15.9 5.3-5.4 10.9-10.8 12.1-18.5C384.5 120.5 380.1 107 377.4 94zM436.7 347.2c-9.3 8.8-18.9 17.3-29.3 24.8-20.8 14.8-45.1 25.8-70.8 27.8-.3 0-.5 0-.8.1 2.1.4 4.2.8 6.3.9 8.3.5 16.6.6 24.9.6 6.5 0 13.1.3 19.4-1.7 5.4-1.8 10.4-4.4 15.1-7.8 9.9-7.3 18-16.7 26-25.9 9.1-10.5 17.7-21.1 24.7-33.2 1.5-2.5 2.9-5.1 4.3-7.7C451 333.2 443.5 340.7 436.7 347.2zM468.1 295.3c0 .1-.1.1-.1.2-1 2.1-1.7 4.3-2.3 6.6-.8 2.9-1.4 6-2.3 9C465.8 306.3 469 300.6 468.1 295.3z"/><path fill="#3AB37C" d="M440.8,324.9c-5.1,8.3-11.5,15.5-19.3,21.4c-30.1,22.8-71.1,26-107.9,26.3c-1.1,3.7-2.7,7.5-2.6,11.1c0.2,5.4,10.9,6.4,14.9,6.7c15,1.1,31.3-3.2,45.1-8.9c27.5-11.4,53-32.1,71.8-55c4-4.8,8.9-10.2,10.7-16.3c1.5-4.8,2.5-9.7,4.1-14.5C449.5,304,446.8,315.2,440.8,324.9z"/><path fill="#3AB37C" d="M482.3,296.8c-0.9-4.3-3.1-6.7-5.8-7.7c3.4,12.2-2.9,23.4-8.4,34.2c-6.3,12.5-13.5,24.7-22.2,35.7c-7.2,9.1-15,18-23,26.3c-7.7,7.9-16,15.5-26.1,20.3c-11.7,5.6-23.8,5.3-36.5,5.1c-7.7-0.1-16,0.3-23.7-1c-6.3-1-12.2-3.5-18.4-4.6c5.6,4,12.2,6.6,18.6,8.6c9.9,3.1,20.1,6.9,30.4,7.9c10.4,1.1,21-0.3,30.8-4c20.1-7.7,36.3-23,48.6-40.4c5.5-7.7,10-16.1,15-24.1c5.4-8.7,10.8-17.5,14.9-26.9C480.5,317.3,484.4,306.8,482.3,296.8z"/><path fill="#71C598" d="M321.7,205.2c-3.8-0.9-7.5-2.1-11.1-3.7c-7.5-3.4-12.8-9.7-12.4-18.4c0.2-5.3,2.1-10.1,5.8-12.6c0.2-1.1,0.8-2.2,2.1-3c5.8-3.7,12.1-5.9,18.6-7.9c-1.4-0.6-2.5-1.9-2.5-3.9c0-21.1-1.2-42.7-7.2-63c-0.3-1.1-0.7-2.2-1-3.3c-3.7,1.9-9.2-1.7-6.6-6.2c0.8-1.5,1.9-2.7,3-3.9c-2.2-5.6-4.8-11.1-7.8-16.3c-5-8.7-10.5-17.9-18.2-24.4c-9.2-7.8-20.3-11.8-32-13.2c2.2,1.8,4.1,4,5.3,6.8c3.4,7.3,3.8,15.4,5,23.2c1.4,8.9,2.8,17.8,3.4,26.7c0.6,9.2,0.4,18.3,0.2,27.5c-0.5,31.3-2.4,62.6-1.6,93.9c0.7,31.2,3.7,62.2,5.6,93.4c2,31.3,1.9,62.6,1.9,94c0,15.2,0.7,30.6,0.2,45.8c-0.5,14.1-4.7,27.9-5,42c0,1-0.3,1.9-0.7,2.6c6.3,1,12.5,2.6,18.8,3.7c3,0.5,6,1.1,9,1.1c0.4,0,1.2,0,1.8-0.1c0.9-2.8,4.2-3.9,6.9-3.2c1-8.2,3.4-16.2,5.2-24.4c2.8-12.9,3.9-26.1,4-39.3c0-2.1,1.1-3.5,2.5-4.3c-6.4-4-11.9-9.3-15.1-16.3c-4.9-10.3-1.5-19,3-28c-1.8-2.8-0.8-7.3,3.4-7.3c1.7,0,3.4,0,5.1,0c-0.5-13.8,4.5-27.4,6.2-41c1.8-14.6,3.3-29.3,4.1-44c0.8-13.9,0.5-27.6,0.3-41.5c-0.1-5.3,0.2-10.5,0.5-15.8c0.1-3.1,1.1-8.4-0.7-11.2C321.1,208.1,321.1,206.5,321.7,205.2z"/><path fill="#3AB37C" d="M258.9 467.8c1.5-12 4.2-23.8 4.2-36-.1-16.6-.2-33.2-.2-49.8 0-31.4-.3-62.6-2.5-93.9-2.2-31.1-5-62.2-5.2-93.4-.2-31.3 1.6-62.6 1.9-93.9.1-14.6-1.3-28.7-3.5-43.2-1-6.6-1.2-13.7-3.7-20.1-2.3-5.8-7.8-7.9-12.8-11.1-2.6 1.3-5.2 3.1-7.5 4.4-2.7 1.6-3.5 2-5.3 4-2.5 2.9-4.5 6-5.9 9.5-3 7.4-4.1 15.4-5.5 23.3-1.8 10-3.7 19.9-4.7 30-1.6 15.6-2.2 31.2-3.1 46.9-.9 15.3-1.2 30.5-.5 45.8 1.5 30.9 8.6 60.6 14.1 90.9 5.6 30.5 7.9 61.5 10.8 92.3 2.9 31.1 5.2 62.2 4.6 93.5-.1 6.1-9.6 6.9-9.6.7V462c0-.3 0-.5.1-.7.2-46.6-5.4-93-9.9-139.3-3-30.6-10.1-60.4-15.4-90.6-5.3-30.4-5.2-60.8-3.6-91.5 1.5-29.1 3.6-57.9 9.9-86.4 2-9 5.3-19.5 12.3-26-7.6 1.7-15.1 4.1-22.3 7.1-10 4.2-19.6 9.3-26.3 18.1C154.4 72 155.1 99.4 154 122.6c-1.4 30.5-2.3 61.3-.3 91.8.5 8.2 1.1 16.7 2.1 25.1 3.4.8 4.8 6.4 1.3 8.9.7 3.9 1.5 7.7 2.4 11.4 1.6 6.2 3.7 12.3 5.9 18.3 2-.1 4-.2 6-.2 6.1 0 6.9 9.5.7 9.6-1 0-2 0-3 .1 1.6 4 3.4 7.9 5.1 11.9 5.6 12.9 11.9 26.1 14.9 39.9 3.1 14.1 4.2 28.4 4.5 42.8.2 7.2.3 14.3.4 21.5.2.3.5.5.6.8 1.3 2.1.9 4.3-.5 5.8.2 10.6.5 21.2.9 31.8.3 8.1.8 16.2 1.8 24.3.4 3.2.8 6.5 1.7 9.7.2.9.5 1.7.8 2.5 1.6.7 2.5 2.2 2.7 3.8 11.5-.2 22.9-1.1 34.4-1.6 7-.3 14.3-.7 21.5-.3-.1-.3-.1-.6-.1-1v-8.6C258 469.5 258.4 468.6 258.9 467.8zM42.8 287c-4.1-29.7-9.5-59.3-8.8-89.3.3-11.4 2.4-21.7 6.7-32.2-3.5 4.6-6.6 9.5-8.9 14.8-2.7 6.4-2.9 12.9-2.7 19.7.3 15.3.9 30.5 1.1 45.7.1 15.2 1.3 30.3 3.5 45.3 2 14.5 4.6 29 7.9 43.3 2.7 11.7 6.2 23.5 12.2 33.9 5.7 9.9 13.6 20.9 24.3 25.9 4.3 2 8.7 3.4 13.3 4.4C60.2 370.9 48.2 326.8 42.8 287z"/><path fill="#3AB37C" d="M185,410.3c-2.1-1-4.2-2.2-6.1-2.8c-4.2-1.3-8.5-2.3-12.8-3.1c-7.2-1.4-14.3-2.7-21.5-4.1c-20-3.9-43.2-10.2-53.6-29.6c-6.6-12.3-10.6-25.6-14.8-38.9c-4.3-13.7-9.3-26.9-11.5-41.2c-2.3-14.7-3.1-29.5-3.7-44.3c-0.6-15.2-2.6-30.3-3.1-45.5c-0.3-10.9-0.4-21.9-0.6-32.8c-0.1-4.3-0.2-8.9,0.4-13.4c-2,1.8-3.4,4.7-4.5,6.8c-1.8,3.5-3.5,7.1-4.8,10.8c-1.9,5.3-3.7,10.4-4.3,16.1c-0.6,6.3-0.6,12.7-0.5,19.1c0.5,27.8,5.7,55.1,9.3,82.5c5.2,40,19.6,84.6,54.2,108.8c1,0.7,1.6,1.6,1.8,2.5c1,0.1,2,0.2,3,0.3c12.4,1.4,24.9,2.7,37.2,4.7c7.2,1.1,14.3,2.9,21.1,5.6c5,2,10,4.2,15,6.1C185,415.4,185,412.8,185,410.3z"/><path fill="#3AB37C" d="M184.8,396.5c-0.1,0-0.3,0-0.4,0c-12.2-1.3-22.4-8.1-33.3-13.1c-9.3-4.3-19.3-7.1-28.1-12.7c-20.4-13.1-31.3-35.7-34.1-59.2c-1.5-12.5-1.8-25.1-2.6-37.7c-1-15.4-3-30.8-4.3-46.2c-0.7-8.9-0.9-17.9-1.2-26.8c-0.1,0-0.2,0.1-0.3,0.1c-5.8,2.3-8.9-6.8-3.2-9c1-0.4,2.1-0.9,3.1-1.4c0-0.9-0.1-1.9-0.1-2.8c-0.8-13-3.7-24-12.1-34.1c-0.3-0.3-0.6-0.7-0.9-1c-0.7,3.6-0.6,7.8-0.6,10.9c0,10.4,0.4,20.8,0.5,31.1c0.2,15.2,2.2,30.3,3,45.5c0.8,14.9,1,29.8,3.1,44.6c2.1,14.8,6.8,28.2,11.3,42.3c4.2,13.1,7.5,27.7,14.9,39.5c5.7,9.1,14.4,14.9,24.4,18.6c10.1,3.7,20.7,5.5,31.2,7.5c6.4,1.2,12.9,2.2,19.3,3.8c3.1,0.8,6.1,1.6,9.1,2.6c0.3,0.1,0.8,0.3,1.3,0.6C184.8,398.6,184.8,397.5,184.8,396.5z"/><path fill="#231F20" d="M484.5,282.6c-8.6-7.2-20.5-2.9-28.7,2.4c-9.9,6.4-15.1,17.9-19.7,28.2c-1.1,2.6-2.4,5-3.8,7.3c0-0.3,0-0.6,0-0.9c-1.1-8.1-3.7-15.9-4.8-23.9c-0.8-6.1-10.4-5.4-9.6,0.7c1.1,8.1,3.7,15.9,4.8,23.9c0.5,3.9,4.6,5,7.3,3.7c-6.4,9.1-14.8,16-24.3,21.3c-3.8-6.9-7.6-15-7.9-22.9c-0.2-6.2-9.8-5.4-9.6,0.7c0.3,9.1,4.4,18.2,8.8,26.3c-19.7,8.5-42.8,11.5-62.9,12.8c-4.4,0.3-8.7,0.4-13.1,0.6c-0.3-7.1,1.2-13.9,2.8-20.8c1.7-7.3,2.7-14.6,3.6-22c1.8-14.8,3.1-29.7,3.9-44.6c0.8-14.4,0.3-28.8,0.2-43.2c-0.1-7.7,2.4-17.6-0.4-25.2c2.6,0.4,5.1,0.8,7.7,1.1c10.8,1.6,21.9,1.6,32.7,0.5c15-1.6,31.9-6.1,45.1-15.1c0.2,0.1,0.4,0.2,0.6,0.3c2.6,3.9,6.5,7,9,10.9c3.3,5.2,11.2-0.1,7.9-5.4c-1.6-2.5-3.6-4.6-5.6-6.8c-1.5-1.7-3.2-3.4-4.1-5.5c1.9-1.8,3.7-3.8,5.3-5.9c0.7-1,1.4-2,2-3c4.7,0.5,9.3,2.1,13.8,3.6c2.5,0.8,5.2-1.5,5.6-3.8c0.5-2.8-1.3-4.8-3.8-5.6c-3.8-1.3-7.6-2.4-11.4-3.1c1.7-4.9,2.5-10.2,2.7-15.6c4-0.6,8-1.8,12-2.5c2.6-0.5,4.6-2.3,4.4-5.1c-0.2-2.4-2.6-4.9-5.1-4.4c-3.9,0.7-7.7,1.8-11.5,2.4c-0.8-9.3-3.1-18.4-5.8-26.5c-5-14.9-13.2-29.4-24.1-40.7c-5.2-5.4-13.6-10.5-21.8-11.9c-1.1-0.7-2.4-1-3.9-0.6c-0.2,0.1-0.4,0.1-0.6,0.2c-5.9,0.1-11.3,2.4-15.1,8.4c-4.4,7-1.8,17.5-0.9,25c1.4,12.1-2.7,26-7.4,37c-4.6,10.5-11.7,16.8-22.4,20.7c-1.8,0.7-3.6,1.3-5.4,1.8c0.5-0.7,0.7-1.6,0.7-2.7v-1.2c0-0.1,0-0.1,0-0.1c-0.1-24-2.1-48.1-9.8-70.9c-0.1-0.2-0.1-0.4-0.2-0.6c2.2-1.5,4.6-2.9,6.3-4.2c3.5-2.5,9.1-6.1,8.5-11.2c-0.7-5.8-9.2-5.5-9.6-0.2c0,0,0,0,0,0c-0.7,0.7-1.5,1.3-2.2,1.9c-2.1,1.6-4.3,3.1-6.4,4.6c-7.5-18.5-19-36.9-35.5-47.5c-17.5-11.2-40.2-12.1-60.1-8.8c-20.1,3.4-42.7,10.9-57.3,25.7c-8,8.2-12.7,18.3-15.5,29.1c-3.2-2.7-6.2-5.4-10.7-6.3c-6.1-1.2-7.9,8.2-1.8,9.4c2.4,0.5,4.1,2,5.9,3.5c1.5,1.3,3,2.5,4.5,3.7c-0.8,4.7-1.3,9.5-1.7,14.3c-4.1-2.2-8.7-3.1-13.3-3.9c-2.7-0.5-6.9-1.5-9.5-0.4c-3.3,1.4-4.3,5.6-1.6,8.1c0.9,0.8,2.1,1.1,3.2,1.5c1.2,0.3,2.2,0.2,3-0.2c0.6,0.1,1.2,0.1,1.8,0.2c4.7,0.5,10.4,1.4,14,4.6c0.5,0.5,1,0.8,1.6,1c-1.9,29.9-2.7,59.9-2,89.9c0.3,15,1.2,30.1,3.4,44.9c-6.6,1.5-13.8,1.5-20.3,1.5c-6.2,0-5.4,9.6,0.7,9.6c6.7,0,14.2-0.1,21.1-1.6c1.8,9.4,4.1,18.6,7.3,27.6c-3.7,0.5-7.5,1.2-11.2,2c-6,1.3-2.8,10.3,3.2,9c3.8-0.8,7.7-1.4,11.5-1.9c4.7,11.6,10.1,23,14.7,34.7c5.4,13.8,8.4,27.6,9.6,42.3c0.6,7.2,0.9,14.5,1.2,21.7c-12.9-2-24.1-10.2-36.1-14.9c-11.6-4.5-23.6-9.3-32-19c-8-9.2-13.4-19.8-16.3-31.6c-2.8-11.3-3-23.3-3.7-34.9c-1.7-29.3-6-58.4-6.4-87.7c0-0.9,0-1.8,0-2.7c3.9-2.3,7.7-4.9,11.6-7.2c5.3-3.1,0-11-5.4-7.9c-2.3,1.3-4.5,2.8-6.7,4.2c-0.5-7.4-1.7-14.8-4.3-21.9c-2.1-5.7-5.6-10.3-9.2-15c-1.4-1.8-2.9-3.5-4.6-4.9c-0.9-1.8-2.7-3-5-3.4c-0.1,0-0.2,0-0.3,0c-1-0.4-2.1-0.8-3.2-1.1c-10.6-2.4-20.8,10.2-26.9,17c-8.2,9.3-15.3,21-16.4,33.5c-1.4,14.5,0.7,29.4,0.8,44c0.1,15.3,0.4,30.4,1.9,45.5c1.6,15.2,4.2,30.3,7.3,45.3c2.5,12,4.9,23.8,9.4,35.3c4.3,11.2,10.6,21.3,18.5,30.2c7.9,8.9,17.1,14.2,28.6,17.3c7.3,2,14.8,2.9,22.3,3.8c7.7,0.9,15.3,2.4,23,3.1c9.7,0.9,19.5,1.9,28.9,4.6c8.5,2.5,16.5,6.6,24.9,9.5c0.1,5.2,0.2,10.3,0.5,15.5c0.4,9.5,1,19.1,2.5,28.5c0.6,4,1.6,10.6,4.9,13.7c-0.8,3.2,1.2,7.5,5.6,7.4c14.2-0.1,28.3-1.3,42.5-1.8c10.7-0.4,19.4-0.4,29.1,1.5c5.9,1.2,25.4,7,33.5,2.1c2.3,3.4,9.1,2.1,8.8-3.1c-0.7-11.9,3.8-23.4,6.1-35c2.5-12.6,3.4-25.7,3.5-38.6c0.2,0.1,0.5,0.2,0.7,0.3c9.8,4.5,20.7,7.2,31,10.2c11.2,3.2,23.1,3.5,34.5,1.3c22.5-4.3,41.7-18.5,56.6-35.4c7.4-8.4,13.4-17.8,19.1-27.4c5.4-9.1,11.1-17.9,16.2-27.2C488.5,325.1,501.4,296.8,484.5,282.6z M465.7,302.1c0.6-2.3,1.3-4.5,2.3-6.6c0-0.1,0.1-0.1,0.1-0.2c0.9,5.3-2.3,10.9-4.7,15.8C464.3,308.1,464.9,305.1,465.7,302.1z M421.5,346.3c7.8-5.9,14.2-13.1,19.3-21.4c6-9.7,8.8-20.9,16.9-29.2c-1.6,4.8-2.6,9.7-4.1,14.5c-1.9,6.1-6.8,11.4-10.7,16.3c-18.9,22.9-44.3,43.6-71.8,55c-13.8,5.7-30.1,10-45.1,8.9c-4-0.3-14.8-1.3-14.9-6.7c-0.1-3.6,1.5-7.4,2.6-11.1C350.4,372.3,391.4,369.1,421.5,346.3z M456.6,325c-1.4,2.6-2.9,5.2-4.3,7.7c-7,12.1-15.6,22.7-24.7,33.2c-8,9.3-16.1,18.6-26,25.9c-4.6,3.4-9.6,6-15.1,7.8c-6.3,2.1-12.9,1.8-19.4,1.7c-8.3,0-16.6-0.1-24.9-0.6c-2.2-0.1-4.3-0.5-6.3-0.9c0.3,0,0.5,0,0.8-0.1c25.7-2,50-13,70.8-27.8c10.4-7.4,20.1-16,29.3-24.8C443.5,340.7,451,333.2,456.6,325z M313.7,401.5c-0.6-0.7-1.3-1.3-1.9-2c-0.9-1.1-1.7-2.3-2.5-3.6c1.6,0.8,3.4,1.4,5.1,1.9C313.8,398.9,313.5,400.2,313.7,401.5z M404.6,86.7c5.9,6.8,10.7,14.7,14.5,22.8c8.6,18.2,15.2,43.1,5.6,62.2C419,183.1,405,190,393.6,194c-12.8,4.5-26.6,6.1-40.1,5.8c-11.8-0.2-24.2-2.2-35.4-5.7c-4.3-1.3-8.5-3.2-9.9-7.7c0,0,0-0.1,0-0.1c8.2,2.1,16.9,2,25.4,2.3c9.3,0.3,18.3,2.6,27.6,3.2c17.1,1.1,33.6-5.9,43.5-20c9.2-13.1,12.4-30,8.8-45.6c-2.2-9.6-5.2-18.8-8.9-27.8c-3-7.2-7.2-13.9-10.4-21C398.3,79.9,401.8,83.5,404.6,86.7z M388.8,101c-0.6-2.8-4.3-15.3-4.5-22.4c2.8,6.9,6.6,13.3,9.9,20c3.8,7.9,6.6,16.3,8.8,24.8c3.9,14.8,2.7,29-5.5,42.1c-8.7,13.9-24.9,18.3-40.4,16.4c-5-0.6-9.8-1.4-14.7-2c3.5-0.3,6.9-1.1,10.5-2.6c7.7-3.3,14.2-8.7,20.4-14.2c5.6-5,11.5-10.8,15.3-17.4C396.1,132.7,391.8,114.7,388.8,101z M346.6,161.9c10.8-5.1,17.4-14.4,21.9-25.1c5.1-12.3,8.7-27.2,7.2-40.5c-0.5-4.7-1.5-9.4-1.2-14.1c0.1-1.1,0.3-2.1,0.6-2.9c0.2,5.4,1.5,11.1,2.3,14.7c2.8,13,7.1,26.5,5,40.4c-1.2,7.8-6.8,13.2-12.1,18.5c-6.2,6.3-13.5,12.3-21.7,15.9c-6.1,2.7-12.3,1.7-18.8,1.3c-1.8-0.1-3.8-0.3-5.8-0.4C331.5,167.1,339.4,165.3,346.6,161.9z M67.3,152.6c0.3,0.3,0.6,0.7,0.9,1c8.4,10.1,11.4,21.1,12.1,34.1c0.1,0.9,0.1,1.8,0.1,2.8c-1,0.5-2,1-3.1,1.4c-5.7,2.3-2.6,11.3,3.2,9c0.1,0,0.2-0.1,0.3-0.1c0.3,8.9,0.4,17.9,1.2,26.8c1.3,15.4,3.2,30.7,4.3,46.2c0.8,12.6,1.1,25.2,2.6,37.7c2.8,23.5,13.7,46.2,34.1,59.2c8.8,5.6,18.8,8.3,28.1,12.7c10.8,5,21.1,11.8,33.3,13.1c0.1,0,0.3,0,0.4,0c0,1,0,2.1,0,3.1c-0.6-0.2-1-0.5-1.3-0.6c-3-1-6-1.9-9.1-2.6c-6.3-1.6-12.8-2.6-19.3-3.8c-10.5-2-21.2-3.8-31.2-7.5c-10-3.7-18.7-9.5-24.4-18.6c-7.4-11.8-10.7-26.3-14.9-39.5c-4.5-14.1-9.2-27.5-11.3-42.3C71.2,270,71,255,70.2,240.1c-0.8-15.2-2.8-30.2-3-45.5c-0.1-10.4-0.5-20.8-0.5-31.1C66.7,160.5,66.6,156.3,67.3,152.6z M78,394c-10.7-5-18.6-16-24.3-25.9c-6-10.4-9.5-22.2-12.2-33.9c-3.3-14.3-5.9-28.8-7.9-43.3c-2.1-15-3.3-30.1-3.5-45.3c-0.1-15.3-0.7-30.5-1.1-45.7c-0.1-6.8,0-13.3,2.7-19.7c2.3-5.3,5.3-10.2,8.9-14.8c-4.3,10.4-6.4,20.7-6.7,32.2c-0.7,30.1,4.7,59.7,8.8,89.3c5.5,39.8,17.5,83.9,48.5,111.5C86.7,397.4,82.2,396,78,394z M170,411.8c-6.8-2.7-13.9-4.4-21.1-5.6c-12.3-1.9-24.8-3.2-37.2-4.7c-1-0.1-2-0.2-3-0.3c-0.2-0.9-0.7-1.8-1.8-2.5c-34.6-24.1-49-68.8-54.2-108.8c-3.6-27.5-8.8-54.8-9.3-82.5c-0.1-6.3-0.1-12.7,0.5-19.1c0.6-5.7,2.4-10.7,4.3-16.1c1.3-3.7,3-7.3,4.8-10.8c1.1-2.1,2.5-4.9,4.5-6.8c-0.5,4.5-0.4,9.1-0.4,13.4c0.2,10.9,0.3,21.9,0.6,32.8c0.5,15.2,2.5,30.3,3.1,45.5c0.6,14.8,1.3,29.6,3.7,44.3c2.3,14.3,7.2,27.5,11.5,41.2c4.2,13.3,8.2,26.6,14.8,38.9c10.5,19.4,33.6,25.7,53.6,29.6c7.2,1.4,14.3,2.7,21.5,4.1c4.3,0.8,8.6,1.8,12.8,3.1c1.8,0.6,3.9,1.8,6.1,2.8c0,2.5,0.1,5.1,0.1,7.6C180,416,175.1,413.8,170,411.8z M258.9,467.8c-0.5,0.8-0.9,1.7-0.9,2.8v8.6c0,0.4,0,0.7,0.1,1c-7.2-0.3-14.5,0.1-21.5,0.3c-11.5,0.5-22.9,1.3-34.4,1.6c-0.2-1.6-1.2-3.1-2.7-3.8c-0.3-0.8-0.6-1.7-0.8-2.5c-0.9-3.2-1.3-6.5-1.7-9.7c-1-8-1.5-16.2-1.8-24.3c-0.5-10.6-0.7-21.2-0.9-31.8c1.4-1.5,1.8-3.7,0.5-5.8c-0.2-0.3-0.4-0.6-0.6-0.8c-0.1-7.2-0.3-14.3-0.4-21.5c-0.3-14.4-1.4-28.7-4.5-42.8c-3-13.8-9.3-27-14.9-39.9c-1.7-4-3.4-7.9-5.1-11.9c1,0,2,0,3-0.1c6.2,0,5.4-9.6-0.7-9.6c-2,0-4,0.1-6,0.2c-2.3-6-4.3-12.1-5.9-18.3c-1-3.7-1.8-7.6-2.4-11.4c3.5-2.5,2.1-8.1-1.3-8.9c-1-8.4-1.6-16.8-2.1-25.1c-1.9-30.5-1.1-61.3,0.3-91.8c1.1-23.2,0.5-50.6,15.3-69.9c6.7-8.8,16.3-13.9,26.3-18.1c7.2-3,14.7-5.4,22.3-7.1c-7,6.6-10.3,17.1-12.3,26c-6.4,28.5-8.4,57.3-9.9,86.4c-1.6,30.7-1.7,61.1,3.6,91.5c5.3,30.2,12.4,60,15.4,90.6c4.5,46.3,10.1,92.7,9.9,139.3c0,0.2-0.1,0.5-0.1,0.7v5.7c0,6.2,9.4,5.4,9.6-0.7c0.5-31.2-1.7-62.4-4.6-93.5c-2.9-30.8-5.3-61.8-10.8-92.3c-5.5-30.3-12.6-60.1-14.1-90.9c-0.8-15.3-0.4-30.5,0.5-45.8c0.9-15.6,1.5-31.3,3.1-46.9c1-10.1,2.9-20,4.7-30c1.4-7.9,2.5-15.8,5.5-23.3c1.4-3.5,3.4-6.7,5.9-9.5c1.7-2,2.5-2.4,5.3-4c2.3-1.4,4.9-3.2,7.5-4.4c5,3.1,10.5,5.3,12.8,11.1c2.5,6.3,2.7,13.4,3.7,20.1c2.2,14.4,3.6,28.6,3.5,43.2c-0.2,31.3-2,62.6-1.9,93.9c0.2,31.2,3,62.3,5.2,93.4c2.2,31.3,2.5,62.5,2.5,93.9c0,16.6,0.2,33.2,0.2,49.8C263.1,444,260.3,455.9,258.9,467.8z M312.6,418.9c-0.1,13.2-1.2,26.4-4,39.3c-1.8,8.1-4.2,16.2-5.2,24.4c-2.7-0.8-6,0.4-6.9,3.2c-0.6,0-1.4,0.1-1.8,0.1c-3,0-6.1-0.6-9-1.1c-6.3-1.1-12.5-2.7-18.8-3.7c0.4-0.7,0.7-1.6,0.7-2.6c0.2-14.1,4.4-27.9,5-42c0.6-15.2-0.2-30.5-0.2-45.8c0-31.4,0.1-62.7-1.9-94c-2-31.1-4.9-62.2-5.6-93.4c-0.7-31.3,1.1-62.6,1.6-93.9c0.2-9.2,0.4-18.4-0.2-27.5c-0.6-9-2.1-17.9-3.4-26.7c-1.2-7.8-1.7-15.9-5-23.2c-1.3-2.8-3.2-4.9-5.3-6.8c11.6,1.4,22.8,5.5,32,13.2c7.7,6.5,13.2,15.7,18.2,24.4c3,5.2,5.6,10.7,7.8,16.3c-1.2,1.2-2.2,2.5-3,3.9c-2.5,4.5,3,8.1,6.6,6.2c0.4,1.1,0.7,2.2,1,3.3c6,20.4,7.2,41.9,7.2,63c0,2.1,1.1,3.3,2.5,3.9c-6.4,2-12.8,4.2-18.6,7.9c-1.2,0.8-1.9,1.9-2.1,3c-3.7,2.5-5.5,7.3-5.8,12.6c-0.4,8.6,4.9,15,12.4,18.4c3.5,1.6,7.3,2.8,11.1,3.7c-0.6,1.3-0.6,2.9,0.4,4.4c1.7,2.7,0.8,8.1,0.7,11.2c-0.2,5.3-0.5,10.5-0.5,15.8c0.2,13.9,0.4,27.7-0.3,41.5c-0.8,14.7-2.3,29.4-4.1,44c-1.7,13.6-6.7,27.2-6.2,41c-1.7,0-3.4,0-5.1,0c-4.2,0-5.2,4.5-3.4,7.3c-4.5,9-7.9,17.7-3,28c3.3,7,8.8,12.2,15.1,16.3C313.7,415.4,312.6,416.9,312.6,418.9z M476.5,326.3c-4.2,9.4-9.6,18.2-14.9,26.9c-5,8.1-9.5,16.4-15,24.1c-12.3,17.3-28.5,32.7-48.6,40.4c-9.8,3.7-20.4,5.1-30.8,4c-10.3-1.1-20.5-4.8-30.4-7.9c-6.4-2-13.1-4.6-18.6-8.6c6.2,1.2,12.2,3.6,18.4,4.6c7.6,1.3,16,0.9,23.7,1c12.7,0.2,24.8,0.5,36.5-5.1c10-4.8,18.4-12.3,26.1-20.3c8-8.3,15.9-17.2,23-26.3c8.7-11,15.9-23.2,22.2-35.7c5.5-10.8,11.8-22,8.4-34.2c2.8,1,4.9,3.3,5.8,7.7C484.4,306.8,480.5,317.3,476.5,326.3z"/></svg>