<svg xmlns="http://www.w3.org/2000/svg"  viewBox="0 0 48 48" width="48px" height="48px"><path fill="#373837" d="M38.694,16.526c-1.171-2.049-1.242-5.016-1.662-7.339c-0.275-1.52-0.107-1.853-0.49-3.35 c-0.095-0.373-0.198-0.754-0.417-1.071c-0.517-0.748-1.52-0.946-2.424-1.049c-1.658-0.188-3.329-0.261-4.998-0.217 c-0.746,0.02-1.508,0.066-2.196,0.353c-1,0.417-1.743,1.308-2.205,2.288s-0.657,1.952-0.883,3.011 c-0.512,2.403-1.519,5.856-2.859,7.916c0,0,2.106-1.766,3.877-2.897c0.663-1.329,0.951-2.267,1.516-3.641 c2.555-0.139,5.01-0.238,7.557,0.012c0.339,0.033,0.723,0.097,0.905,0.385c0.103,0.163,0.117,0.364,0.133,0.557 c0.065,0.79,0.258,1.521,0.492,2.279C35.04,13.763,37.408,14.073,38.694,16.526z"/><path fill="#373837" d="M3.409,23.79c0,0,2.884,3.64,8.425,0.862s10.513-4.977,12.465-6.086 c1.951-1.108,7.16-0.774,8.743-0.775c1.583,0,2.167,0.354,4.293,1.016c1.896,0.646,6.073,2.029,8.226,2.765 c0.307,1.827,0.617,4.686,0.465,8.514c-0.152,3.828-0.515,10.474-0.515,10.474s0.134,2.266-3.012,2.152 c-3.147-0.114-5.978-0.571-7.103,0.004s-3.356,2.774-8.9-0.237c-2.177,0.279-5.668,0.967-8.34,0.08 c-1.86,0.112-6.685,1.166-9.719,1.015s-5.769-0.059-5.885-2.793c-0.115-2.734,0.938-5.837,1.052-7.605 C3.718,31.408,3.409,23.79,3.409,23.79z"/><path fill="#73a1b2" d="M27.222,28.484c-2.691,1.985-2.892,3.359-2.729,5.14c0.163,1.782,1.195,3.371,2.192,4.033 c0.997,0.662,4.769,2.129,6.698-0.28s2.796-4.62,1.878-7.014c-0.918-2.394-2.437-2.795-4.266-2.71 C29.168,27.738,28.851,27.593,27.222,28.484z"/><path fill="#bcbcbc" d="M44.979,18.667c0,0-5.459-1.268-6.06-1.935c-0.6-0.667-1.34-2.537-3.88-2.661 c-2.54-0.125-7.92-0.252-8.998-0.093c-1.079,0.159-3.187,1.064-4.25,2.523c-1.063,1.458-5.042,0.643-5.042,0.643 s-0.126,0.014-0.339,0.041c0.051-0.644,0.126-1.357,0.234-1.517c-1.103-0.401-2.195-0.274-3.369-0.258 c-1.264,0.018-2.527,0.066-3.788,0.144c-0.068,0.004-0.144,0.012-0.188,0.064c-0.036,0.042-0.04,0.102-0.043,0.158 c-0.024,0.475-0.048,1.75-0.072,2.802c-1.084,0.277-2.211,0.598-3.338,0.974c0,0-2.848,0.742-2.681,4.658 c1.925,0.73,4.402,2.276,7.55,0.862s10.66-5.209,10.66-5.209s3.397-2.103,5.706-2.026s5.059-0.166,6.208-0.044 c1.958,0.207,10.79,3.82,12.143,3.662C45.333,20.351,44.979,18.667,44.979,18.667z"/><path fill="#bcbcbc" d="M40.409,32.673c0.01,0.027,0.021,0.051,0.031,0.078c-0.191-3.335-1.181-6.793-1.482-7.46 c-0.821-1.817-2.965-2.96-4.889-3.481c-1.924-0.522-3.97-0.391-5.931-0.03c-1.613,0.297-3.291,0.8-4.387,2.02 c-0.979,1.089-1.345,2.699-1.679,4.124c-0.26,1.11-0.23,3.218-0.362,4.77c-0.059,0.307-0.111,0.615-0.136,0.928 c-0.003,0.039-0.001,0.078-0.004,0.117c-0.007,0.032-0.011,0.073-0.018,0.104c0,0,0.012-0.023,0.016-0.029 c-0.12,2.099,0.556,4.222,1.82,5.92c1.303,1.749,3.202,3.045,5.299,3.721c0.888,0.286,1.815,0.465,2.749,0.477 c3.177,0.042,6.193-1.945,7.72-4.682C40.266,37.26,40.633,34.941,40.409,32.673z M35.486,33.092 c-0.135,1.296-0.412,2.84-1.457,3.634c-1.019,0.775-2.406,1.9-3.691,1.872c-2.841-0.062-4.151-0.491-5.346-3.039 c-0.626-1.333-0.682-2.917-0.152-4.29c0.53-1.373,1.638-2.518,3.003-3.101c2.454-1.048,4.54-0.58,6.945,0.575 C35.262,30.363,35.761,30.461,35.486,33.092z"/><path fill="#d6e5e5" d="M19.423,19.475c-1.534,0.109-2.024-0.075-3.53-0.002c-0.128,0.006-0.288,0.04-0.317,0.178 c-0.012,0.055,0.003,0.113,0.018,0.167c0.238,0.884-0.301,2.006-0.063,2.89c0.069,0.257,0.158,0.541,0.373,0.667 c0.132,0.077,0.288,0.078,0.437,0.078c1.031-0.001,2.498-0.003,3.529-0.004c0.186,0,0.392-0.01,0.523-0.155 c0.128-0.142,0.138-0.365,0.14-0.566c0.004-0.427,0.009-0.854,0.013-1.28c0.005-0.447,0.006-0.912-0.163-1.318 S19.827,19.447,19.423,19.475z"/><path fill="#373837" d="M9.765,20.603c-0.513-0.058-0.708-0.121-1.222-0.098c-0.512,0.023-1.052,0.142-1.442,0.599 c-0.391,0.457-0.552,1.344-0.222,1.884c0.193,0.314,0.499,0.444,0.794,0.509c0.984,0.215,2.124-0.267,2.575-1.494 c0.051-0.138,0.092-0.288,0.084-0.442C10.303,21.044,10.139,20.645,9.765,20.603z"/><path fill="#010101" d="M8.114,24.044c-0.188,0-0.372-0.02-0.549-0.059c-0.515-0.112-0.879-0.354-1.113-0.736 c-0.46-0.75-0.233-1.883,0.269-2.47c0.414-0.484,1.003-0.737,1.8-0.773c0.417-0.021,0.663,0.015,0.947,0.055l0.353,0.045 c0.001,0,0.001,0,0.001,0c0.282,0.032,0.943,0.236,1.009,1.429c0.015,0.253-0.052,0.475-0.112,0.64 C10.246,23.458,9.137,24.044,8.114,24.044z M8.752,21c-0.057,0-0.118,0.001-0.187,0.004c-0.52,0.024-0.854,0.155-1.085,0.426 c-0.255,0.298-0.386,0.955-0.176,1.297c0.088,0.143,0.233,0.229,0.475,0.282c0.696,0.155,1.622-0.151,1.999-1.178 c0.024-0.066,0.058-0.168,0.054-0.241c-0.019-0.329-0.095-0.465-0.123-0.49l0,0c-0.146-0.017-0.269-0.033-0.379-0.049 C9.114,21.021,8.966,21,8.752,21z"/><path fill="#010101" d="M35.041,28.312c-0.012-0.007-0.024-0.013-0.036-0.02c-2.134-1.024-4.5-1.806-7.357-0.583 c-1.498,0.64-2.691,1.872-3.274,3.381c-0.582,1.511-0.521,3.217,0.166,4.682c0.189,0.402,0.44,0.773,0.717,1.128 c0.025,0.061,0.061,0.118,0.111,0.167c0.038,0.037,0.079,0.069,0.117,0.106c1.459,1.667,3.856,2.726,6.557,2.784 c0.076,0.002,0.152,0.002,0.228,0.002c1.565,0,2.824-0.354,3.744-1.052c1.06-0.806,1.761-2.17,1.924-3.741 C38.269,31.984,37.267,29.614,35.041,28.312z M25.307,31.449c0.479-1.239,1.5-2.294,2.733-2.82c0.889-0.38,1.721-0.544,2.533-0.544 c1.22,0,2.398,0.382,3.645,0.951c0.781,1.356,0.839,3.191,0.741,4.513c-0.088,1.185-0.801,2.476-1.906,3.454 c-0.491,0.434-1.125,0.765-1.832,0.956c-1.661,0.441-3.636-0.157-5.07-1.533c-0.271-0.327-0.518-0.677-0.707-1.08 C24.881,34.146,24.829,32.688,25.307,31.449z M36.942,35.062c-0.135,1.298-0.694,2.409-1.535,3.048 c-0.779,0.592-1.891,0.895-3.345,0.847c-0.179-0.004-0.369-0.024-0.557-0.04c0.846-0.232,1.61-0.634,2.209-1.164 c1.297-1.146,2.135-2.69,2.242-4.129c0.074-1.003,0.06-2.28-0.244-3.492C36.748,31.289,37.164,32.938,36.942,35.062z"/><path fill="#d6e5e5" d="M27.217,5.953c-0.689,0.186-0.849,1.286-1.031,2.053c-0.037,0.155-0.05,0.357,0.075,0.436 c0.048,0.03,0.106,0.033,0.161,0.035c2.41,0.073,4.822,0.075,7.232,0.004c0.118-0.003,0.251-0.016,0.324-0.119 c0.066-0.094,0.055-0.227,0.041-0.346c-0.074-0.625-0.169-1.298-0.568-1.743c-0.43-0.48-1.09-0.56-1.696-0.614 c-0.346-0.031-0.692-0.061-1.038-0.077C29.387,5.519,28.51,5.603,27.217,5.953z"/><path fill="#010101" d="M30.099,9.032c-1.235,0-2.469-0.019-3.693-0.056c-0.082-0.003-0.248-0.009-0.412-0.112 c-0.136-0.086-0.439-0.354-0.295-0.973l0.063-0.277c0.18-0.802,0.425-1.901,1.324-2.144l0,0c1.322-0.357,2.246-0.459,3.653-0.388 c0.331,0.015,0.662,0.043,0.993,0.072c0.641,0.057,1.508,0.134,2.09,0.783c0.522,0.582,0.621,1.412,0.692,2.019 c0.017,0.143,0.051,0.437-0.128,0.691c-0.22,0.315-0.581,0.327-0.717,0.332C32.483,9.015,31.29,9.032,30.099,9.032z M26.703,7.984 c2.266,0.063,4.547,0.064,6.805,0c-0.075-0.616-0.168-1.086-0.43-1.378c-0.295-0.329-0.794-0.398-1.367-0.449 c-0.383-0.033-0.7-0.062-1.018-0.076c-1.308-0.06-2.123,0.024-3.346,0.354c-0.001,0-0.001,0-0.001,0 c-0.316,0.086-0.492,0.875-0.608,1.396L26.703,7.984z M27.217,5.953h0.01H27.217z"/><path fill="#010101" d="M45.449,18.729c-0.022-0.077-0.063-0.147-0.117-0.206c-0.791-0.84-2.131-1.091-3.426-1.335 c-1.097-0.206-2.223-0.424-2.809-0.978c-0.786-1.418-1.042-3.312-1.285-5.151c-0.09-0.679-0.178-1.342-0.289-1.96 c-0.115-0.633-0.149-1.047-0.183-1.447c-0.044-0.538-0.087-1.047-0.314-1.938c-0.095-0.37-0.212-0.83-0.49-1.231 c-0.624-0.904-1.755-1.146-2.778-1.262C32.079,3.029,30.375,2.957,28.691,3c-0.775,0.021-1.597,0.067-2.376,0.391 c-1.019,0.425-1.895,1.326-2.465,2.537c-0.468,0.991-0.674,1.961-0.892,2.987l-0.028,0.133c-0.258,1.208-1.221,5.338-2.789,7.748 c-0.009,0.014-0.01,0.03-0.018,0.045c-0.988-0.156-2.058-0.21-3.201-0.176l0.003-0.037c0.02-0.22,0.048-0.553,0.134-0.682 c0.087-0.127,0.109-0.287,0.062-0.434s-0.16-0.263-0.305-0.315c-1-0.365-1.989-0.333-2.943-0.304 c-0.199,0.007-0.4,0.013-0.604,0.016c-1.267,0.018-2.549,0.066-3.809,0.145c-0.088,0.005-0.354,0.021-0.539,0.237 c-0.148,0.173-0.159,0.372-0.163,0.458l-0.111,2.225c-0.003,0.054,0.01,0.104,0.023,0.154c-0.833,0.242-1.685,0.503-2.576,0.805 c-1.074,0.364-2.17,0.804-2.741,1.811c-0.35,0.615-0.417,1.33-0.437,1.946c-0.044,1.355,0.052,2.931,0.146,4.455 c0.116,1.903,0.236,3.872,0.096,5.497c-0.089,1.023-0.311,2.072-0.524,3.086c-0.375,1.779-0.763,3.619-0.487,5.48 c0.069,0.475,0.201,1.084,0.598,1.589c0.697,0.889,1.871,1.062,2.917,1.154c0.915,0.081,1.832,0.123,2.762,0.123 c2.601-0.001,5.295-0.322,8.29-0.981c0.918-0.204,2.946,0.077,4.159,0.243l0.722,0.096c0.903,0.062,1.9-0.064,2.863-0.187 c0.675-0.085,1.313-0.166,1.901-0.183c0.043-0.001,0.08-0.017,0.12-0.028c0.651,0.359,1.337,0.665,2.056,0.896 c0.993,0.32,1.968,0.489,2.896,0.502c0.033,0,0.066,0.001,0.1,0.001c1.622,0,3.254-0.519,4.686-1.416 c0.577-0.006,0.976,0.018,1.367,0.043c0.447,0.028,0.898,0.057,1.593,0.044c0.16-0.007,0.81,0.022,1.563,0.052 c1.108,0.043,2.358,0.088,2.624,0.076c1.04,0.121,1.93-0.664,2.344-1.487c0.311-0.62,0.314-1.111,0.317-1.632 c0.001-0.163,0.002-0.335,0.014-0.525l0.207-3.429C46.568,30.789,46.973,24.107,45.449,18.729z M23.909,9.257l0.028-0.134 c0.215-1.01,0.399-1.883,0.817-2.77c0.465-0.986,1.155-1.711,1.944-2.039c0.62-0.258,1.337-0.297,2.018-0.314 c1.638-0.039,3.295,0.029,4.928,0.215c0.801,0.091,1.672,0.261,2.069,0.836c0.163,0.236,0.249,0.539,0.344,0.911 c0.207,0.81,0.244,1.256,0.287,1.772c0.033,0.404,0.071,0.862,0.194,1.542c0.109,0.604,0.194,1.25,0.282,1.913 c0.125,0.951,0.254,1.916,0.456,2.841c-0.008-0.005-0.013-0.011-0.021-0.015c-0.563-0.334-1.227-0.38-1.712-0.413 c-0.01-0.001-0.021-0.001-0.031-0.001c-0.206-0.67-0.405-1.394-0.469-2.173c-0.019-0.225-0.041-0.504-0.207-0.769 c-0.331-0.521-0.971-0.584-1.278-0.614c-2.603-0.254-5.097-0.151-7.634-0.013c-0.192,0.011-0.362,0.131-0.436,0.309 c-0.213,0.52-0.407,0.967-0.595,1.397c-0.3,0.691-0.582,1.344-0.894,2.173c-0.351,0.142-0.688,0.323-0.999,0.563 c-0.399,0.308-0.717,0.678-1.023,1.036c-0.018,0.021-0.036,0.04-0.054,0.061C23.024,13.142,23.697,10.249,23.909,9.257z M34.464,13.554c-2.443-0.137-4.907-0.194-7.346-0.131c-0.638,0.016-1.287,0.052-1.915,0.16c0.205-0.511,0.404-0.97,0.61-1.446 c0.153-0.354,0.312-0.718,0.481-1.123c2.39-0.127,4.741-0.212,7.167,0.027c0.307,0.029,0.485,0.082,0.531,0.153 c0.034,0.055,0.045,0.192,0.057,0.331C34.11,12.255,34.28,12.923,34.464,13.554z M9.745,16.038 c1.174-0.069,2.363-0.112,3.538-0.129c0.21-0.003,0.416-0.01,0.621-0.016c0.728-0.021,1.421-0.045,2.093,0.104 c-0.037,0.188-0.053,0.376-0.067,0.545l-0.014,0.156c0,0.005,0.002,0.009,0.001,0.014c-1.876,0.14-3.961,0.523-6.263,1.142 L9.745,16.038z M3.917,22.722c0.016-0.521,0.064-1.06,0.306-1.484c0.398-0.702,1.265-1.043,2.192-1.357 c5.724-1.94,10.183-2.609,13.701-2.036c0.014,0,0.027,0,0.042,0c0.882,0,1.573-0.597,2.08-1.121 c0.174-0.18,0.337-0.371,0.501-0.562c0.286-0.334,0.557-0.649,0.874-0.895c0.932-0.719,2.255-0.812,3.53-0.844 c2.768-0.071,5.572-0.012,8.333,0.178c0.499,0.034,0.939,0.078,1.271,0.275c0.356,0.211,0.605,0.605,0.869,1.024 c0.209,0.333,0.426,0.678,0.721,0.977c0.01,0.01,0.025,0.016,0.036,0.027c0.014,0.012,0.029,0.022,0.044,0.033 c0.801,0.752,2.069,1.001,3.305,1.234c1.086,0.205,2.207,0.415,2.801,0.958c0.151,0.548,0.272,1.118,0.385,1.692 c-1.427-0.381-4.173-1.37-6.091-2.061c-1.528-0.55-2.339-0.841-2.618-0.904c-0.274-0.062-0.548-0.175-0.836-0.295 c-0.195-0.082-0.391-0.163-0.59-0.23c-1.229-0.421-2.51-0.34-3.751-0.263c-0.54,0.034-1.08,0.07-1.619,0.06 c-0.295-0.005-0.591-0.023-0.887-0.042c-0.613-0.038-1.249-0.081-1.893-0.002c-1.91,0.225-4.064,1.133-5.992,2.501 c-0.303-0.403-0.764-0.642-1.244-0.606c-0.781,0.057-1.277,0.033-1.803,0.008c-0.482-0.021-0.984-0.046-1.714-0.01 c-0.62,0.028-0.757,0.445-0.784,0.572c-0.037,0.174,0.003,0.321,0.024,0.401c0.092,0.341,0.026,0.778-0.043,1.241 c-0.063,0.417-0.125,0.844-0.085,1.266c-2.108,1.342-4.012,2.175-5.648,2.447c-1.916,0.317-3.693-0.054-5.426-1.128 C3.904,23.413,3.906,23.061,3.917,22.722z M16.014,22.578c-0.092-0.341-0.026-0.778,0.043-1.241 c0.07-0.466,0.143-0.945,0.063-1.372c0.576-0.022,1.006-0.001,1.419,0.019c0.533,0.024,1.083,0.05,1.92-0.009h0.001 c0.177-0.028,0.373,0.132,0.462,0.348c0.132,0.316,0.129,0.726,0.125,1.119l-0.014,1.281c0,0.052-0.002,0.208,0.021,0.213 c-0.023,0.009-0.085,0.014-0.184,0.014l-3.529,0.004c-0.056,0-0.158,0-0.181-0.008C16.12,22.914,16.071,22.79,16.014,22.578z M31.443,43.433c-0.828-0.011-1.704-0.164-2.603-0.453c-2.046-0.658-3.841-1.917-5.052-3.544c-1.224-1.642-1.844-3.689-1.722-5.638 c0.065-0.324,0.113-0.697,0.147-1.113c0.466-2.24,1.895-4.441,4.029-6.158c0.599-0.481,1.108-0.811,1.606-1.036 c0.823-0.373,1.718-0.509,2.599-0.509c1.225,0,2.423,0.262,3.363,0.511l0.256,0.067c1.799,0.475,3.659,0.965,4.455,2.411 c0.406,0.738,0.645,1.414,0.921,2.332c0.918,3.062,0.654,6.234-0.723,8.703c-1.481,2.657-4.361,4.427-7.189,4.427 C31.502,43.434,31.473,43.433,31.443,43.433z M22.384,29.502c0.039-0.58,0.094-1.118,0.191-1.528 c0.314-1.342,0.671-2.862,1.549-3.84c1.058-1.177,2.75-1.613,4.106-1.861c2.255-0.415,4.124-0.408,5.708,0.021 c2.224,0.603,3.931,1.801,4.565,3.205c0.089,0.197,0.246,0.668,0.426,1.323c-1.117-1.303-2.956-1.792-4.608-2.227l-0.255-0.067 c-1.766-0.467-4.374-0.969-6.631,0.055c-0.576,0.26-1.154,0.631-1.82,1.167C24.255,26.844,23.162,28.128,22.384,29.502z M45.246,36.099l-0.207,3.429c-0.013,0.21-0.015,0.4-0.016,0.579c-0.003,0.469-0.005,0.778-0.212,1.189 c-0.257,0.514-0.81,1.008-1.413,0.939c-0.299,0.014-1.585-0.038-2.621-0.078c-0.781-0.029-1.471-0.064-1.619-0.053 c-0.658,0.016-1.088-0.016-1.513-0.042c-0.051-0.003-0.104-0.006-0.155-0.009c0.829-0.727,1.557-1.583,2.102-2.56 c1.084-1.943,1.53-4.274,1.331-6.664c0.006-0.036,0.017-0.069,0.015-0.107c-0.193-3.383-1.183-6.879-1.525-7.637 c-1.091-2.412-4.01-3.432-5.215-3.758c-1.731-0.469-3.742-0.482-6.15-0.04c-1.513,0.277-3.409,0.775-4.67,2.178 c-1.049,1.168-1.437,2.82-1.794,4.344c-0.177,0.757-0.224,1.872-0.272,3.053c-0.025,0.592-0.052,1.188-0.095,1.722 c-0.065,0.333-0.116,0.666-0.142,0.999c-0.003,0.034-0.001,0.069-0.003,0.103c-0.003,0.013-0.005,0.031-0.008,0.044 c-0.017,0.073-0.015,0.144-0.001,0.213c-0.082,2.119,0.603,4.319,1.922,6.091c0.595,0.799,1.322,1.511,2.138,2.125 c-0.265,0.03-0.531,0.061-0.794,0.094c-0.914,0.115-1.86,0.239-2.643,0.184l-0.681-0.091c-1.443-0.199-3.424-0.472-4.511-0.229 c-3.963,0.873-7.376,1.14-10.748,0.839c-0.875-0.077-1.768-0.201-2.218-0.775c-0.196-0.25-0.318-0.595-0.396-1.118 c-0.249-1.684,0.104-3.356,0.478-5.127c0.221-1.044,0.448-2.122,0.542-3.207c0.147-1.698,0.024-3.704-0.094-5.645 c-0.046-0.74-0.089-1.459-0.118-2.152c1.317,0.71,2.661,1.084,4.07,1.084c0.487,0,0.982-0.042,1.486-0.126 c1.737-0.289,3.64-1.094,5.799-2.443c0.086,0.137,0.193,0.267,0.352,0.361c0.251,0.146,0.515,0.146,0.689,0.146l3.529-0.004 c0.197,0,0.606,0,0.896-0.321c0.262-0.292,0.266-0.685,0.268-0.895l0.014-1.282c0.002-0.284-0.001-0.593-0.045-0.903 c1.826-1.34,3.95-2.262,5.74-2.474c0.553-0.066,1.115-0.031,1.713,0.008c0.311,0.02,0.621,0.038,0.932,0.044 c0.568,0.009,1.145-0.026,1.699-0.062c1.195-0.075,2.324-0.145,3.364,0.21c0.18,0.062,0.354,0.135,0.529,0.208 c0.315,0.131,0.642,0.268,1.001,0.348c0.23,0.053,1.332,0.449,2.499,0.87c2.26,0.814,5.281,1.9,6.612,2.189 C45.81,26.514,45.51,31.74,45.246,36.099z"/></svg>