<svg xmlns="http://www.w3.org/2000/svg"  viewBox="0 0 512 512" width="48px" height="48px"><path fill="#F6851F" d="M383.3 252.8c-9.5-1.8-20.6-.6-26.2 8.4-5.4 8.7-6.8 19-5.9 29.1.4 4-3 6-6.1 5.7.2 2.7.8 5.3 1.8 7.8 10.1 24.5 54.6 24.6 62-2.2C414.2 282.5 404.6 256.8 383.3 252.8zM172.2 299.4c-.9-13.6-6.9-26.5-20.3-31.4-10.5-3.8-23.3-1.7-32.2 5.1-10.6 8-13.7 21.2-10.7 33.8.7 2.9-.8 5.2-2.8 6.4.4 3.6 1.4 6.9 3.2 9.7 2.8 4.4 7.2 7.3 12.1 8.8 6.5 2 13.5 3.9 20.3 3.9 8.5.1 17.7-1.8 23.5-8.6C171.7 319.6 172.8 309.1 172.2 299.4z"/><path fill="#FEBF10" d="M461.8,181.3c-9.1-23.4-22.2-45.4-38.1-64.9c-32-39.3-76.9-71.1-127.6-79.8C241.6,27.1,183.7,46.9,139.7,79c-22.6,16.5-42.9,36.8-56.9,61.2c-8,13.9-14.2,28.5-19.2,43.6c-5.5,10-9.4,21-12.4,31.9c-2.9,10.5-4.9,21.4-5.9,32.3c-0.2,0.9-0.5,1.9-0.8,2.8c-0.2,0.6-0.4,1.1-0.7,1.5c-0.6,5.3-1,10.6-1,16.1c-0.1,17.9,2,35.9,6.3,53.2c10.9,44.2,34.1,87.9,71,115.7c21.7,16.3,47.4,24.6,74.1,27.7c29.3,3.5,59.6,2.4,88.7-1.7c28.9-4.1,58.1-11.3,84.1-24.9c23.3-12.2,42.5-29,58.5-49.9c29.6-38.8,47.4-87.9,48.1-136.8C473.9,227.9,470.5,203.7,461.8,181.3z M284.4,190.2c0-0.3,0-0.6,0.1-0.9c0,0,0,0,0-0.1c0-0.3,0.1-0.6,0.2-0.8c0,0,0-0.1,0-0.1c0.1-0.3,0.2-0.5,0.3-0.7c0,0,0-0.1,0.1-0.1c0.1-0.2,0.3-0.4,0.5-0.7c0,0,0.1-0.1,0.1-0.1c0.2-0.2,0.4-0.4,0.6-0.5c0,0,0.1,0,0.1-0.1c0.2-0.2,0.5-0.3,0.7-0.4c0,0,0.1,0,0.1,0c0.3-0.1,0.6-0.2,0.9-0.3c0,0,0.1,0,0.1,0c0.3-0.1,0.7-0.1,1.1-0.1c0.2,0,0.5,0,0.7,0c0.1,0,0.1,0,0.2,0c0.2,0,0.3,0,0.5,0.1c0.1,0,0.2,0,0.2,0.1c0.1,0,0.3,0.1,0.4,0.1c0.1,0,0.1,0.1,0.2,0.1c0.1,0.1,0.3,0.1,0.4,0.2c0,0,0.1,0,0.1,0.1c0.2,0.1,0.4,0.2,0.5,0.3c0,0,0,0,0.1,0.1c0.1,0.1,0.3,0.2,0.4,0.3c0,0,0.1,0.1,0.1,0.1c0.1,0.1,0.2,0.2,0.3,0.3c0,0,0.1,0.1,0.1,0.1c0.1,0.1,0.2,0.2,0.3,0.3c3.5-4.5,8-8.3,12.5-11.5c4.9-3.5,11.9-8.3,18.4-6.7c6.9,1.7,4.8,12.5-2.1,10.8c-2.7-0.7-8.6,3.8-11.1,5.8c-1.1,0.8-2.2,1.7-3.3,2.6c12.5-3.1,25.5-5,37.9-5.8c12.3-0.8,40.1-1.4,39.1,17.6c-0.4,7-11.4,7.9-11,0.8c0.2-2.8,0.2-3.1-1.8-4.5c-1.3-0.9-4.4-1.9-6.7-2.4c-8.2-1.5-16.7-0.9-25,0c-15.1,1.7-30.9,4.4-45.2,9.7c-5.2,1.9-8.5-4-6.6-7.8c-0.4-0.1-0.7-0.2-1-0.3c0,0,0,0-0.1,0c-0.3-0.1-0.6-0.3-0.8-0.5c0,0,0,0-0.1,0c-0.3-0.2-0.5-0.4-0.7-0.6c0,0,0,0-0.1-0.1c-0.2-0.2-0.4-0.4-0.6-0.7c0,0,0-0.1-0.1-0.1c-0.2-0.2-0.3-0.5-0.5-0.8c0,0,0-0.1,0-0.1c-0.1-0.3-0.2-0.5-0.3-0.8c0,0,0,0,0-0.1c-0.1-0.3-0.2-0.6-0.2-0.9c0,0,0,0,0,0C284.5,190.8,284.4,190.5,284.4,190.2C284.4,190.2,284.4,190.2,284.4,190.2z M166.2,340.7c-8.4,5-17.9,6.6-27.5,5.9c-10-0.8-21.6-3.1-30-8.8C91.9,326.6,95,305,96.4,287.6c0.2-2.2,1.3-3.5,2.8-4c2.3-7.2,6.6-13.6,13.1-18.7c12-9.4,28.6-12.1,43-7.2c13.4,4.6,23.3,16.5,26.3,30.3C185.5,306.1,183.7,330.2,166.2,340.7z M198.7,216.1c-2.7-0.5-5.1-2.5-7.4-3.9c-3.6-2.2-7.6-4.8-11.8-5.7c-6.5-1.5-19.8,0.9-20.4,9.3c-0.5,7.1-11.3,4.9-10.8-2.1c0.8-12.2,15.6-18,26.1-18.6c5.9-0.3,11.6,1.6,16.7,4.4c2.3,1.2,4.6,2.6,6.8,4c0.9,0.6,1.8,1.2,2.7,1.7c0.6,0.3,1.7,0.5,0.1,0.2C207.8,206.5,205.7,217.3,198.7,216.1z M336.1,350.8c-2.2-2.2-4.7-4.2-7.1-6.3c-3.5,6.3-9.1,11.8-14.4,16.2c-22.1,18.3-51.8,13.5-78.4,13.4c-7.1,0-7.9-11-0.8-11c21.8,0.1,49.4,5.1,68.1-7.7c5.7-3.9,11.6-9.1,15.2-15.1c0.7-1.2,1.4-2.3,1.8-3.4c-2.8-2.8-5.3-5.8-7.3-9.3c-2.1-3.8,0.5-9.9,5.6-8.5c7.3,2,13,6.8,13.5,13.7c3.7,3.2,7.7,6.2,11.1,9.5C348.4,347.5,341.2,355.8,336.1,350.8z M421.4,291.5c-0.6,16.6-8.7,31.4-24.6,37.9c-13.3,5.4-29.8,4.6-42.4-2.5c-13.9-7.8-21.2-21.3-20-37.2c0.3-3.5,3-4.7,5.6-4.2c-0.1-11.7,2.5-24.2,10.1-33.1c8.9-10.4,23.5-13.5,36.6-10C408.2,248,422.2,269.5,421.4,291.5z"/><path fill="#010101" d="M386.7 242.2c-13-3.5-27.7-.4-36.6 10-7.6 8.9-10.3 21.4-10.1 33.1-2.6-.4-5.4.8-5.6 4.2-1.2 15.9 6.1 29.4 20 37.2 12.6 7.1 29.1 7.9 42.4 2.5 15.9-6.4 24-21.2 24.6-37.9C422.2 269.5 408.2 248 386.7 242.2zM408.9 301.6c-7.4 26.8-51.9 26.7-62 2.2-1-2.5-1.6-5.1-1.8-7.8 3.1.3 6.4-1.7 6.1-5.7-.9-10.1.5-20.4 5.9-29.1 5.6-9 16.7-10.2 26.2-8.4C404.6 256.8 414.2 282.5 408.9 301.6zM346.2 182.7c-12.4.8-25.4 2.7-37.9 5.8 1.1-.9 2.2-1.8 3.3-2.6 2.6-2 8.4-6.5 11.1-5.8 6.9 1.7 9-9.1 2.1-10.8-6.4-1.6-13.4 3.2-18.4 6.7-4.5 3.2-9 7-12.5 11.5-.1-.1-.2-.2-.3-.3 0 0-.1-.1-.1-.1-.1-.1-.2-.2-.3-.3 0 0-.1-.1-.1-.1-.1-.1-.3-.2-.4-.3 0 0 0 0-.1-.1-.2-.1-.3-.2-.5-.3 0 0-.1 0-.1-.1-.1-.1-.3-.1-.4-.2-.1 0-.1-.1-.2-.1-.1 0-.3-.1-.4-.1-.1 0-.2 0-.2-.1-.1 0-.3-.1-.5-.1-.1 0-.1 0-.2 0-.2 0-.5 0-.7 0-.4 0-.8 0-1.1.1 0 0-.1 0-.1 0-.3.1-.6.2-.9.3 0 0-.1 0-.1 0-.3.1-.5.3-.7.4 0 0-.1 0-.1.1-.2.2-.4.3-.6.5 0 0-.1.1-.1.1-.2.2-.3.4-.5.7 0 0 0 .1-.1.1-.1.2-.2.5-.3.7 0 0 0 .1 0 .1-.1.3-.2.5-.2.8 0 0 0 0 0 .1 0 .3-.1.6-.1.9 0 0 0 0 0 0 0 .3 0 .6.1.9 0 0 0 0 0 0 0 .3.1.6.2.9 0 0 0 0 0 .1.1.3.2.6.3.8 0 0 0 .1 0 .1.1.3.3.5.5.8 0 0 0 .1.1.1.2.2.4.5.6.7 0 0 0 0 .1.1.2.2.5.4.7.6 0 0 0 0 .1 0 .3.2.5.3.8.5 0 0 0 0 .1 0 .3.1.7.2 1 .3-1.9 3.9 1.4 9.7 6.6 7.8 14.3-5.3 30.1-8 45.2-9.7 8.2-.9 16.8-1.5 25 0 2.4.4 5.5 1.4 6.7 2.4 1.9 1.4 1.9 1.7 1.8 4.5-.4 7.1 10.6 6.1 11-.8C386.3 181.3 358.5 181.9 346.2 182.7z"/><path fill="#010101" d="M474.4,185.9c-7.6-23.5-20.1-45.7-34.6-65.6c-30-41.1-72.3-74.1-121.2-89c-52.3-16-107.8-4.2-155.2,20.8c-31.2,16.4-59.9,40-80.4,68.8c-12.2,17.2-21.1,36.3-27.9,56.1c-0.3,0.3-0.7,0.7-1,1.1c-1.1,1.7-2.1,3.5-3.1,5.4c-2.9,5.3-4.8,11.4-6.7,17c-0.6,1.8-1.7,4.4-2.4,7.2c-0.4,0.6-0.7,1.2-0.9,2.1c-2.6,12.7-5.8,25.3-7.3,38.2c-1.3,11.1-1.5,22.2-1,33.4c1.1,23.1,6.1,46.2,13.8,68c15.1,42.7,42.6,82.7,82,106.1c24.2,14.4,53.2,19.8,81,21.4c29.4,1.7,59.1-0.2,88-5.3c28.3-5,56-13.6,81.2-27.7c22.4-12.5,40.8-30.3,56.2-50.7c29.4-39.1,46.4-87.4,48.7-136.2C484.8,233,481.8,208.8,474.4,185.9z M473.6,251.9c-0.7,48.9-18.6,98-48.1,136.8c-15.9,20.9-35.2,37.7-58.5,49.9c-26,13.6-55.2,20.8-84.1,24.9c-29.1,4.1-59.5,5.1-88.7,1.7c-26.8-3.2-52.5-11.4-74.1-27.7c-37-27.8-60.2-71.5-71-115.7c-4.3-17.4-6.3-35.3-6.3-53.2c0-5.4,0.4-10.8,1-16.1c0.3-0.4,0.5-0.9,0.7-1.5c0.3-0.9,0.6-1.9,0.8-2.8c1-10.9,3-21.8,5.9-32.3c3-10.9,6.9-21.9,12.4-31.9c5-15.1,11.2-29.7,19.2-43.6c14-24.3,34.3-44.7,56.9-61.2c44-32.2,101.9-52,156.5-42.5c50.6,8.8,95.6,40.6,127.6,79.8c15.9,19.5,29,41.5,38.1,64.9C470.5,203.7,473.9,227.9,473.6,251.9z"/><path fill="#010101" d="M181.6 288c-3-13.8-12.8-25.7-26.3-30.3-14.4-4.9-31-2.3-43 7.2-6.5 5.1-10.8 11.6-13.1 18.7-1.5.5-2.7 1.8-2.8 4-1.3 17.4-4.4 39 12.3 50.2 8.4 5.6 20 8 30 8.8 9.6.7 19.2-.8 27.5-5.9C183.7 330.2 185.5 306.1 181.6 288zM165.3 327.2c-5.8 6.8-15 8.7-23.5 8.6-6.8-.1-13.8-2-20.3-3.9-5-1.5-9.4-4.4-12.1-8.8-1.8-2.8-2.7-6.2-3.2-9.7 2.1-1.2 3.5-3.5 2.8-6.4-3-12.6.1-25.8 10.7-33.8 8.9-6.7 21.7-8.9 32.2-5.1 13.5 4.9 19.5 17.8 20.3 31.4C172.8 309.1 171.7 319.6 165.3 327.2zM343.4 342.6c-3.4-3.3-7.4-6.3-11.1-9.5-.4-7-6.1-11.7-13.5-13.7-5.1-1.4-7.7 4.7-5.6 8.5 1.9 3.5 4.4 6.5 7.3 9.3-.5 1-1.1 2.2-1.8 3.4-3.6 6-9.5 11.1-15.2 15.1-18.7 12.9-46.3 7.8-68.1 7.7-7.1 0-6.2 10.9.8 11 26.5.1 56.3 4.9 78.4-13.4 5.4-4.5 10.9-9.9 14.4-16.2 2.5 2 4.9 4.1 7.1 6.3C341.2 355.8 348.4 347.5 343.4 342.6zM200.8 205.3c1.5.3.5.1-.1-.2-.9-.5-1.8-1.1-2.7-1.7-2.2-1.4-4.5-2.8-6.8-4-5.1-2.8-10.8-4.7-16.7-4.4-10.4.6-25.2 6.4-26.1 18.6-.5 7 10.3 9.2 10.8 2.1.6-8.3 13.9-10.7 20.4-9.3 4.2 1 8.2 3.5 11.8 5.7 2.3 1.4 4.7 3.4 7.4 3.9C205.7 217.3 207.8 206.5 200.8 205.3z"/></svg>